<svg width="572" height="452" viewBox="0 0 572 452" fill="none" xmlns="http://www.w3.org/2000/svg">
<g clip-path="url(#clip0_5_2)">
<path opacity="0.1" d="M532.222 304.684C509.866 321.291 507.94 353.912 511.782 381.501C513.069 390.735 514.687 400.576 510.786 409.042C506.014 419.396 494.176 424.697 482.863 426.142C462.243 428.771 440.558 420.921 426.404 405.699C414.171 392.542 407.679 374.793 395.078 361.988C373.977 340.561 340.611 337.418 310.674 340.106C289.492 342.005 265.93 345.559 248.827 332.917C236.795 324.018 230.973 308.736 229.566 293.837C228.895 286.642 229.025 279.096 225.779 272.653C223.836 268.823 220.807 265.653 217.593 262.802C188.246 236.776 142.966 234.131 115.097 206.541C96.2739 187.905 88.4828 160.278 88.9102 133.798C89.3376 107.317 97.1287 81.5401 105.683 56.4392C111.748 38.6197 119.047 19.8157 134.434 8.97467C150.671 -2.48843 173.2 -2.28827 191.444 5.69641C209.688 13.6811 224.199 28.3846 236.151 44.3107C251.089 64.2183 263.663 87.3717 285.305 99.6679C300.07 108.069 317.313 110.347 333.864 114.02C361.527 120.149 388.077 130.438 414.388 140.96C439.579 151.027 464.873 161.452 487.348 176.664C503.255 187.413 514.357 202.089 528.852 214.185C538.298 222.067 549.693 226.628 558.198 235.705C568.673 246.887 576.545 263.527 569.019 278.441C561.877 292.609 544.082 295.866 532.222 304.684Z" fill="#A7E0FE"/>
<path d="M289.368 98.0991C289.984 98.0991 290.483 97.6001 290.483 96.9847C290.483 96.3692 289.984 95.8703 289.368 95.8703C288.752 95.8703 288.253 96.3692 288.253 96.9847C288.253 97.6001 288.752 98.0991 289.368 98.0991Z" fill="#F8F9FA"/>
<path d="M292.344 98.0991C292.959 98.0991 293.458 97.6001 293.458 96.9847C293.458 96.3692 292.959 95.8703 292.344 95.8703C291.728 95.8703 291.229 96.3692 291.229 96.9847C291.229 97.6001 291.728 98.0991 292.344 98.0991Z" fill="#F8F9FA"/>
<path d="M295.325 98.0991C295.941 98.0991 296.44 97.6001 296.44 96.9847C296.44 96.3692 295.941 95.8703 295.325 95.8703C294.709 95.8703 294.21 96.3692 294.21 96.9847C294.21 97.6001 294.709 98.0991 295.325 98.0991Z" fill="#F8F9FA"/>
<path d="M3.85226 305.474C3.85226 305.474 -22.9674 347.366 64.9527 348.086C64.9527 348.086 66.2458 311.635 37.5054 296.618C31.9168 293.685 25.4465 292.903 19.32 294.42C13.1935 295.938 7.83637 299.649 4.26345 304.851L3.85226 305.474Z" fill="#A7E0FE"/>
<path d="M4.05244 304.77C4.05244 304.77 49.0838 313.642 64.9527 348.086" stroke="#535461" stroke-miterlimit="10"/>
<path d="M68.8807 342.449C68.8807 342.449 39.9671 305.089 42.6074 268.26C43.6895 252.805 40.0591 237.366 31.6729 224.328C27.6824 218.155 23.1349 212.361 18.0872 207.017" stroke="#535461" stroke-width="2" stroke-miterlimit="10"/>
<path d="M19.6021 183.805C21.6202 188.976 18.1088 207.634 18.1088 207.634C18.1088 207.634 2.88919 196.279 0.871087 191.108C0.338968 189.868 0.0617585 188.534 0.0559629 187.185C0.0501672 185.836 0.315903 184.499 0.83735 183.255C1.3588 182.011 2.1253 180.884 3.09122 179.942C4.05714 179 5.20273 178.262 6.4598 177.772C7.71688 177.282 9.05973 177.05 10.4084 177.089C11.7571 177.129 13.0841 177.439 14.3103 178.002C15.5365 178.565 16.6369 179.369 17.5461 180.365C18.4552 181.362 19.1544 182.532 19.6021 183.805V183.805Z" fill="#A7E0FE"/>
<path d="M46.2757 206.406C45.1612 211.848 32.0678 225.6 32.0678 225.6C32.0678 225.6 25.4563 207.802 26.5708 202.338C26.8076 201.017 27.3063 199.757 28.0376 198.632C28.7689 197.507 29.718 196.54 30.829 195.787C31.9399 195.034 33.1903 194.512 34.5065 194.25C35.8226 193.987 37.1779 193.991 38.4925 194.261C39.8071 194.531 41.0545 195.061 42.1611 195.82C43.2677 196.579 44.2112 197.552 44.936 198.681C45.6608 199.81 46.1523 201.073 46.3814 202.395C46.6106 203.717 46.5728 205.072 46.2703 206.379L46.2757 206.406Z" fill="#A7E0FE"/>
<path d="M64.7146 255.634C61.003 259.767 42.7643 265.031 42.7643 265.031C42.7643 265.031 46.0431 246.33 49.7492 242.197C51.5423 240.254 54.0284 239.095 56.6696 238.971C59.3107 238.847 61.8945 239.768 63.8617 241.534C65.829 243.3 67.0214 245.77 67.181 248.409C67.3406 251.048 66.4546 253.644 64.7146 255.634V255.634Z" fill="#A7E0FE"/>
<path d="M70.2766 296.028C67.317 300.729 50.2254 309.012 50.2254 309.012C50.2254 309.012 50.2957 290.029 53.2552 285.328C53.9447 284.181 54.856 283.183 55.936 282.393C57.0159 281.603 58.2427 281.036 59.5444 280.726C60.8462 280.416 62.1967 280.369 63.517 280.587C64.8372 280.806 66.1006 281.285 67.2332 281.998C68.3658 282.711 69.3447 283.642 70.1127 284.738C70.8806 285.833 71.4222 287.071 71.7056 288.379C71.989 289.687 72.0086 291.038 71.7632 292.353C71.5179 293.668 71.0124 294.922 70.2766 296.039V296.028Z" fill="#A7E0FE"/>
<path d="M12.7741 234.277C17.8924 236.441 36.6397 233.422 36.6397 233.422C36.6397 233.422 25.7214 217.885 20.6031 215.722C19.3845 215.208 18.0767 214.939 16.7542 214.93C15.4317 214.921 14.1205 215.173 12.8953 215.671C11.6702 216.169 10.5552 216.904 9.61396 217.833C8.67272 218.762 7.92369 219.867 7.40964 221.085C6.89558 222.304 6.62657 223.611 6.61795 224.934C6.60934 226.256 6.86129 227.567 7.35943 228.792C7.85757 230.017 8.59213 231.132 9.52119 232.073C10.4502 233.014 11.5556 233.763 12.7741 234.277V234.277Z" fill="#A7E0FE"/>
<path d="M19.8943 281.433C25.4238 281.974 42.4072 273.475 42.4072 273.475C42.4072 273.475 27.3283 261.942 21.7988 261.412C20.4655 261.249 19.1131 261.356 17.8215 261.724C16.5299 262.093 15.3253 262.716 14.2786 263.558C13.232 264.4 12.3646 265.443 11.7275 266.625C11.0905 267.807 10.6967 269.105 10.5695 270.442C10.4423 271.779 10.5842 273.128 10.9869 274.409C11.3895 275.69 12.0447 276.878 12.9139 277.902C13.783 278.926 14.8484 279.765 16.0473 280.371C17.2462 280.976 18.5543 281.336 19.8943 281.428V281.433Z" fill="#A7E0FE"/>
<path d="M33.0904 326.312C38.4522 327.767 56.626 322.271 56.626 322.271C56.626 322.271 43.7112 308.352 38.3494 306.902C37.0659 306.528 35.7206 306.413 34.3923 306.565C33.0641 306.717 31.7794 307.132 30.6135 307.786C29.4476 308.441 28.4238 309.321 27.6019 310.375C26.7801 311.429 26.1768 312.637 25.8272 313.927C25.4776 315.217 25.3888 316.564 25.566 317.889C25.7431 319.214 26.1827 320.491 26.859 321.644C27.5352 322.797 28.4346 323.803 29.5046 324.605C30.5746 325.406 31.7936 325.987 33.0904 326.312V326.312Z" fill="#A7E0FE"/>
<path opacity="0.25" d="M19.6021 183.805C21.6202 188.976 18.1088 207.634 18.1088 207.634C18.1088 207.634 2.88919 196.279 0.871087 191.108C0.338968 189.868 0.0617585 188.534 0.0559629 187.185C0.0501672 185.836 0.315903 184.499 0.83735 183.255C1.3588 182.011 2.1253 180.884 3.09122 179.942C4.05714 179 5.20273 178.262 6.4598 177.772C7.71688 177.282 9.05973 177.05 10.4084 177.089C11.7571 177.129 13.0841 177.439 14.3103 178.002C15.5365 178.565 16.6369 179.369 17.5461 180.365C18.4552 181.362 19.1544 182.532 19.6021 183.805V183.805Z" fill="black"/>
<path opacity="0.25" d="M46.2757 206.406C45.1612 211.848 32.0678 225.6 32.0678 225.6C32.0678 225.6 25.4563 207.802 26.5708 202.338C26.8076 201.017 27.3063 199.757 28.0376 198.632C28.7689 197.507 29.718 196.54 30.829 195.787C31.9399 195.034 33.1903 194.512 34.5065 194.25C35.8226 193.987 37.1779 193.991 38.4925 194.261C39.8071 194.531 41.0545 195.061 42.1611 195.82C43.2677 196.579 44.2112 197.552 44.936 198.681C45.6608 199.81 46.1523 201.073 46.3814 202.395C46.6106 203.717 46.5728 205.072 46.2703 206.379L46.2757 206.406Z" fill="black"/>
<path opacity="0.25" d="M64.7146 255.634C61.003 259.767 42.7643 265.031 42.7643 265.031C42.7643 265.031 46.0431 246.33 49.7492 242.197C51.5423 240.254 54.0284 239.095 56.6696 238.971C59.3107 238.847 61.8945 239.768 63.8617 241.534C65.829 243.3 67.0214 245.77 67.181 248.409C67.3406 251.048 66.4546 253.644 64.7146 255.634V255.634Z" fill="black"/>
<path opacity="0.25" d="M70.2766 296.028C67.317 300.729 50.2254 309.012 50.2254 309.012C50.2254 309.012 50.2957 290.029 53.2552 285.328C53.9447 284.181 54.856 283.183 55.936 282.393C57.0159 281.603 58.2427 281.036 59.5444 280.726C60.8462 280.416 62.1967 280.369 63.517 280.587C64.8372 280.806 66.1006 281.285 67.2332 281.998C68.3658 282.711 69.3447 283.642 70.1127 284.738C70.8806 285.833 71.4222 287.071 71.7056 288.379C71.989 289.687 72.0086 291.038 71.7632 292.353C71.5179 293.668 71.0124 294.922 70.2766 296.039V296.028Z" fill="black"/>
<path opacity="0.25" d="M12.7741 234.277C17.8924 236.441 36.6397 233.422 36.6397 233.422C36.6397 233.422 25.7214 217.885 20.6031 215.722C19.3845 215.208 18.0767 214.939 16.7542 214.93C15.4317 214.921 14.1205 215.173 12.8953 215.671C11.6702 216.169 10.5552 216.904 9.61396 217.833C8.67272 218.762 7.92369 219.867 7.40964 221.085C6.89558 222.304 6.62657 223.611 6.61795 224.934C6.60934 226.256 6.86129 227.567 7.35943 228.792C7.85757 230.017 8.59213 231.132 9.52119 232.073C10.4502 233.014 11.5556 233.763 12.7741 234.277V234.277Z" fill="black"/>
<path opacity="0.25" d="M19.8943 281.433C25.4238 281.974 42.4072 273.475 42.4072 273.475C42.4072 273.475 27.3283 261.942 21.7988 261.412C20.4655 261.249 19.1131 261.356 17.8215 261.724C16.5299 262.093 15.3253 262.716 14.2786 263.558C13.232 264.4 12.3646 265.443 11.7275 266.625C11.0905 267.807 10.6967 269.105 10.5695 270.442C10.4423 271.779 10.5842 273.128 10.9869 274.409C11.3895 275.69 12.0447 276.878 12.9139 277.902C13.783 278.926 14.8484 279.765 16.0473 280.371C17.2462 280.976 18.5543 281.336 19.8943 281.428V281.433Z" fill="black"/>
<path opacity="0.25" d="M33.0904 326.312C38.4522 327.767 56.626 322.271 56.626 322.271C56.626 322.271 43.7112 308.352 38.3494 306.902C37.0659 306.528 35.7206 306.413 34.3923 306.565C33.0641 306.717 31.7794 307.132 30.6135 307.786C29.4476 308.441 28.4238 309.321 27.6019 310.375C26.7801 311.429 26.1768 312.637 25.8272 313.927C25.4776 315.217 25.3888 316.564 25.566 317.889C25.7431 319.214 26.1827 320.491 26.859 321.644C27.5352 322.797 28.4346 323.803 29.5046 324.605C30.5746 325.406 31.7936 325.987 33.0904 326.312V326.312Z" fill="black"/>
<path opacity="0.1" d="M250.775 270.722C240.495 270.495 229.453 271.008 221.283 275.05C206.133 282.526 208.173 297.689 198.294 308.211C189.951 317.094 174.006 321.708 158.543 324.651C133.352 329.449 106.932 331.245 81.9145 336.401C67.1656 339.441 52.5248 343.861 42.4181 351.423C32.3113 358.986 27.7773 370.265 34.6108 379.213C40.9302 387.484 54.8513 391.909 67.5281 396.194C80.2048 400.478 93.6336 406.099 97.1612 415.03C99.1252 420.002 97.6644 425.363 99.9584 430.269C104.482 439.953 121.422 444.524 136.641 446.996C148.799 448.971 161.156 450.426 173.611 451.324C183.561 452.054 193.738 452.438 203.504 451.015C211.96 449.782 219.789 447.229 227.9 445.265C279.429 432.72 338.695 443.572 391.253 432.947C400.818 431.027 410.227 428.322 417.477 423.897C422.888 420.608 426.891 416.496 430.262 412.234C438.843 401.414 443.545 389.28 443.907 377.114C444.124 369.822 442.825 362.454 444.822 355.27C446.915 347.793 452.505 340.918 455.48 333.566C460.891 320.204 457.103 305.436 445.325 293.875C441.12 289.614 435.966 286.411 430.284 284.527C425.522 283.002 420.199 282.418 414.956 281.822C400.348 280.237 385.55 278.647 370.812 279.54C360.326 280.178 350.063 282.066 339.545 282.407C324.785 282.888 313.223 279.485 299.843 276.288C284.45 272.642 267.131 271.079 250.775 270.722Z" fill="#A7E0FE"/>
<path d="M65.0014 160.132V304.824L257.549 267.427L253.87 156.453L65.0014 160.132Z" fill="#DBACA2"/>
<path d="M426.945 330.731V378.553L223.36 438.027L221.283 436.95L60.251 353.414V155.685L259.54 149.248L260.768 258.994L252.793 261.45L249.725 158.801L74.3506 164.882L73.1279 313.561L225.811 380.392L225.93 380.365L426.945 330.731Z" fill="#E8C2B8"/>
<path opacity="0.1" d="M426.945 330.731V378.553L223.36 438.027L221.283 436.95L225.93 380.365L426.945 330.731Z" fill="black"/>
<path d="M181.51 261.293C181.51 261.293 82.9425 271.128 73.3713 285.371C63.8002 299.615 73.2902 317.088 73.2902 317.088L225.671 383.303L432.318 329.963C432.318 329.963 426.799 292.561 409.632 288.271C392.465 283.981 255.704 254.552 255.704 254.552C255.704 254.552 200.517 251.177 181.51 261.293Z" fill="#EBECF0"/>
<path d="M73.2794 285.506L228.727 339.154C228.727 339.154 394.531 288.887 418.018 293.621C418.018 293.621 302.034 252.112 255.704 253.919C218.783 255.358 180.125 261.417 180.125 261.417C180.125 261.417 77.5753 271.717 73.2794 285.506Z" fill="#F8F9FA"/>
<path d="M312.449 320.02L312.487 319.966V319.934L312.514 319.879V319.842V319.787V319.75V319.69V319.652V319.582V319.549C312.514 319.517 312.514 319.485 312.514 319.452C312.514 319.414 312.514 319.376 312.514 319.338C312.514 319.301 312.514 319.338 312.514 319.301C312.514 319.263 312.514 319.247 312.514 319.219V319.171V319.09V319.036V318.954V318.9V318.814V318.76V318.668V318.619L312.471 318.484L312.417 318.332V318.284L312.373 318.175V318.116L312.33 318.013L312.303 317.948L312.26 317.845L312.227 317.775L312.179 317.672L312.146 317.607L312.087 317.494L312.054 317.434L311.973 317.277L311.876 317.093L311.843 317.034L311.773 316.904L311.735 316.834L311.665 316.715L311.621 316.639L311.551 316.52L311.432 316.342L311.356 316.223L311.307 316.147L311.226 316.017L311.183 315.947L311.075 315.774V315.741L310.94 315.535L310.896 315.476L310.799 315.33L310.745 315.254L310.653 315.124L310.599 315.043L310.507 314.913L310.447 314.827L310.35 314.719L310.29 314.637L310.188 314.497L310.133 314.427L309.998 314.243V314.216L309.841 313.999L309.787 313.923L309.684 313.783L309.614 313.691L309.517 313.561L309.446 313.469L309.349 313.339L309.279 313.253L309.176 313.117L309.105 313.031L308.997 312.89L308.932 312.809L308.802 312.647L308.759 312.593C308.272 311.976 307.769 311.359 307.266 310.764C305.847 309.078 304.109 307.687 302.152 306.673C300.195 305.658 298.057 305.039 295.861 304.851C295.412 304.814 294.941 304.765 294.465 304.705H294.265L293.913 304.657H293.745L293.204 304.581L292.69 304.5L292.512 304.467L292.149 304.402L291.933 304.359L291.603 304.294L291.37 304.246L291.056 304.175L290.818 304.121L290.504 304.045L290.261 303.986L289.952 303.905L289.709 303.84L289.401 303.753C287.777 301.34 285.31 299.193 282.908 298.776C282.246 298.674 281.57 298.709 280.922 298.879L280.809 298.755L280.646 298.571L280.43 298.295L280.289 298.111L280.062 297.792L279.948 297.635C279.837 297.473 279.73 297.307 279.629 297.137C279.31 296.995 278.976 296.888 278.634 296.818C283.421 296.093 288.142 294.98 292.75 293.491C292.973 293.407 293.185 293.296 293.383 293.161L293.48 293.129C297.489 291.668 302.413 277.441 298.95 275.45C295.487 273.459 290.201 257.057 287.101 248.656C284.001 240.254 275.068 239.362 275.068 239.362C275.068 239.362 262.126 229.338 256.294 230.43C250.461 231.523 249.547 222.776 249.001 222.413C248.937 222.361 248.884 222.296 248.844 222.224C247.437 220.022 236.253 217.085 230.221 215.635C224.323 211.361 217.29 208.045 211.603 206.677C209.704 206.163 207.711 206.096 205.781 206.48C203.851 206.865 202.037 207.691 200.479 208.895C188.533 209.5 186.629 218.524 186.629 218.524C186.588 219.755 186.801 220.982 187.256 222.127C186.611 222.135 185.966 222.101 185.325 222.024C186.71 219.736 186.753 216.793 187.786 214.277C189.826 209.3 195.453 206.731 200.772 206.06C203.872 205.67 207.264 205.67 209.71 203.728C210.968 202.723 211.828 201.302 212.134 199.72C212.233 199.378 212.202 199.012 212.047 198.692C211.896 198.484 211.692 198.32 211.457 198.216C208.254 196.506 204.397 196.95 200.761 196.869C194.853 196.739 189.096 195.122 183.382 193.623C180.964 192.99 178.351 192.379 176.013 193.277C173.806 194.121 172.302 196.133 170.533 197.697C163.282 204.091 151.244 203.166 144.795 210.371C143.302 212.043 142.182 214.31 142.728 216.484C142.95 217.372 143.442 218.188 143.599 219.092C143.913 220.877 142.896 222.586 142.036 224.182C141.175 225.778 140.412 227.715 141.224 229.338C142.452 231.815 146.202 231.631 148.149 233.595C149.053 234.509 149.491 235.819 150.433 236.689C151.942 238.08 154.263 237.972 156.308 237.771C157.115 237.696 158.321 237.474 158.765 236.765C160.347 238.253 162.252 239.353 164.332 239.979C166.412 240.605 168.608 240.74 170.749 240.373C172.889 240.006 174.915 239.147 176.667 237.864C178.419 236.581 179.849 234.908 180.845 232.978C185.252 232.681 189.632 233.865 193.289 236.343C193.84 237.967 194.851 239.395 196.2 240.455C197.477 241.455 198.997 242.683 200.528 243.998C196.649 245.02 193.202 245.675 193.202 245.675C193.202 245.675 177.891 250.598 177.891 253.876C177.945 254.47 178.13 255.044 178.432 255.558C178.044 256.374 177.825 257.259 177.788 258.16C173.562 257.446 170.181 256.37 168.433 254.785C168.433 254.785 167.935 254.65 167.167 254.498C166.139 253.184 163.12 249.532 161.324 249.678C160.128 249.775 159.701 252.556 159.549 255.045C159.392 255.18 159.254 255.337 159.138 255.51C157.315 258.242 160.599 263.711 162.785 264.625C164.971 265.539 177.003 265.166 185.206 271.187C188.842 273.854 195.091 274.368 200.896 274.119C195.058 278.241 186.883 284.576 185.747 288.503C185.135 290.586 184.416 293.172 184.459 295.828C180.888 300.551 175.483 310.521 188.847 315.303C199.863 319.236 229.728 318.733 251.008 317.77C260.909 319.517 269.084 321.275 272.514 322.958C272.514 322.958 280.717 324.04 284.001 326.057C287.285 328.075 293.296 327.518 293.296 327.518C293.296 327.518 304.961 329.525 307.515 332.073C310.068 334.621 314.44 327.696 308.976 324.418C306.844 323.141 303.668 321.037 300.589 318.733C304.544 319.198 308.034 319.706 310.252 320.226L310.474 320.274H310.545H310.685H310.766H310.885H310.961H311.075H311.616H311.757H311.8H311.886H311.935H312.005H312.049H312.114H312.157L312.216 320.247H312.254L312.308 320.209H312.335L312.406 320.15L312.449 320.02ZM262.094 302.547C262.094 302.547 260.557 302.195 258.263 301.654L253.708 299.815C253.708 299.815 261.482 297.37 268.684 294.259C270.745 295.163 272.558 295.882 273.012 296.537C273.208 296.754 273.475 296.894 273.764 296.932C271.059 297.602 267.585 299.328 263.511 303.31C263.017 303.098 262.543 302.843 262.094 302.547V302.547ZM207.048 258.62L211.544 256.532C212.523 257.365 213.573 258.155 214.601 258.923C212.134 259.069 208.817 259.232 205.068 259.334C206.215 258.95 207.048 258.62 207.048 258.62Z" fill="url(#paint0_linear_5_2)"/>
<path d="M168.736 255.137C168.736 255.137 164.808 249.803 162.671 249.965C160.534 250.127 160.886 259.064 160.886 259.064L168.736 255.137Z" fill="#FFD5D8"/>
<path d="M219.238 258.707C219.238 258.707 177.48 262.099 169.629 254.958C169.629 254.958 162.314 252.994 160.529 255.672C158.743 258.35 161.957 263.7 164.099 264.593C166.242 265.485 178.021 265.134 186.05 271.014C194.079 276.894 215.136 272.096 215.136 272.096L223.88 268.704L219.238 258.707Z" fill="#6BC6E5"/>
<path opacity="0.05" d="M219.238 258.707C219.238 258.707 177.48 262.099 169.629 254.958C169.629 254.958 162.314 252.994 160.529 255.672C158.743 258.35 161.957 263.7 164.099 264.593C166.242 265.485 178.021 265.134 186.05 271.014C194.079 276.894 215.136 272.096 215.136 272.096L223.88 268.704L219.238 258.707Z" fill="black"/>
<path d="M279.018 278.69C279.018 278.69 270.096 272.269 251.717 280.313C233.337 288.357 187.478 292.626 187.478 292.626C187.478 292.626 172.134 307.967 189.642 314.216C207.151 320.464 273.153 315.297 273.153 315.297C273.153 315.297 300.097 317.083 308.483 319.046C313.558 320.237 309.565 314.491 305.589 309.774C304.2 308.122 302.499 306.759 300.583 305.766C298.666 304.773 296.572 304.168 294.421 303.986C289.152 303.537 281.842 301.881 278.498 296.385C278.498 296.385 272.076 293.172 262.44 302.807L253.145 299.031C253.145 299.031 278.661 291.003 279.553 285.647C280.446 280.291 279.018 278.69 279.018 278.69Z" fill="#FFD5D8"/>
<path opacity="0.05" d="M279.018 278.69C279.018 278.69 270.096 272.269 251.717 280.313C233.337 288.357 187.478 292.626 187.478 292.626C187.478 292.626 172.134 307.967 189.642 314.216C207.151 320.464 273.153 315.297 273.153 315.297C273.153 315.297 300.097 317.083 308.483 319.046C312.931 320.085 310.404 315.801 307.055 311.57C305.385 309.445 303.311 307.672 300.952 306.351C298.594 305.031 295.997 304.19 293.312 303.878C288.172 303.293 281.615 301.503 278.504 296.385C278.504 296.385 272.082 293.172 262.446 302.807L253.145 299.031C253.145 299.031 278.661 291.003 279.553 285.647C280.446 280.291 279.018 278.69 279.018 278.69Z" fill="black"/>
<path d="M279.196 253.357C279.196 253.357 267.953 235.505 241.366 251.036L207.28 269.97C207.28 269.97 188.344 281.925 186.58 287.99C184.816 294.054 182.116 304.402 200.68 308.33C219.243 312.257 262.424 317.25 271.524 321.713C271.524 321.713 279.553 322.795 282.767 324.748C285.981 326.701 291.868 326.176 291.868 326.176C291.868 326.176 303.289 328.14 305.789 330.639C308.288 333.139 312.568 326.355 307.217 323.147C301.866 319.939 289.731 311.37 289.904 308C290.077 304.63 285.797 298.674 281.674 297.949C277.552 297.224 272.217 303.299 272.217 303.299C272.217 303.299 265.438 304.381 261.331 301.676C261.331 301.676 240.273 296.856 238.131 295.433C235.988 294.01 221.358 288.476 221.358 288.476C221.358 288.476 255.985 288.119 266.146 278.842C266.146 278.842 270.074 275.985 273.283 276.878C273.31 276.905 289.189 270.841 279.196 253.357Z" fill="#FFD5D8"/>
<path d="M178.015 219.811C178.015 219.811 188.187 226.947 196.037 219.811C203.888 212.676 199.435 241.758 199.435 241.758C199.435 241.758 188.549 227.304 172.313 236.765L178.015 219.811Z" fill="#FFD5D8"/>
<path opacity="0.05" d="M178.015 219.811C178.015 219.811 188.187 226.947 196.037 219.811C203.888 212.676 199.435 241.758 199.435 241.758C199.435 241.758 188.549 227.304 172.313 236.765L178.015 219.811Z" fill="black"/>
<path d="M134.477 281.011C134.477 281.011 145.184 271.912 151.25 271.733C153.057 271.679 155.145 269.84 157.201 267.287C159.798 264.061 163.224 261.601 167.111 260.172C170.999 258.743 175.202 258.397 179.27 259.172C182.722 259.81 186.97 259.794 192.126 258.518C210.862 253.876 201.583 242.289 201.583 242.289L195.697 237.295C195.697 237.295 187.667 231.767 184.632 232.124C181.597 232.481 173.746 240.509 172.854 239.616C171.961 238.724 161.075 230.696 159.29 228.553C157.504 226.411 143.22 219.454 146.791 217.491C150.362 215.527 168.379 208.213 164.808 206.785C161.237 205.357 141.965 203.214 134.472 212.135C126.978 221.056 130.722 275.834 134.477 281.011Z" fill="#F8F9FA"/>
<path opacity="0.05" d="M134.477 281.011C134.477 281.011 145.184 271.912 151.25 271.733C153.057 271.679 155.145 269.84 157.201 267.287C159.798 264.061 163.224 261.601 167.111 260.172C170.999 258.743 175.202 258.397 179.27 259.172C182.722 259.81 186.97 259.794 192.126 258.518C210.862 253.876 201.583 242.289 201.583 242.289L195.697 237.295C195.697 237.295 187.667 231.767 184.632 232.124C181.597 232.481 173.746 240.509 172.854 239.616C171.961 238.724 161.075 230.696 159.29 228.553C157.504 226.411 143.22 219.454 146.791 217.491C150.362 215.527 168.379 208.213 164.808 206.785C161.237 205.357 141.965 203.214 134.472 212.135C126.978 221.056 130.722 275.834 134.477 281.011Z" fill="black"/>
<path d="M135.191 279.761C135.191 279.761 145.899 270.662 151.964 270.484C153.771 270.43 155.859 268.59 157.915 266.037C160.51 262.815 163.93 260.357 167.813 258.927C171.695 257.497 175.892 257.148 179.958 257.917C183.409 258.555 187.657 258.539 192.813 257.262C211.549 252.621 202.27 241.033 202.27 241.033L196.384 236.04C196.384 236.04 188.355 230.512 185.319 230.869C182.284 231.226 174.433 239.254 173.541 238.361C172.648 237.469 161.762 229.441 159.977 227.298C158.191 225.156 143.935 218.205 147.495 216.263C151.055 214.321 169.088 206.985 165.517 205.557C161.946 204.129 142.674 201.986 135.181 210.907C127.687 219.828 131.442 274.584 135.191 279.761Z" fill="#F8F9FA"/>
<path d="M187.473 219.454C187.473 219.454 190.329 205.892 211.208 211.248C232.087 216.603 242.438 228.196 242.438 228.196L223.501 236.938L200.301 229.089C200.301 229.089 187.3 229.246 187.473 219.454Z" fill="#FFD5D8"/>
<path opacity="0.05" d="M225.665 216.062C225.665 216.062 245.743 220.39 247.637 223.371C247.677 223.442 247.731 223.504 247.794 223.555C248.335 223.912 249.222 232.475 254.93 231.404C260.638 230.333 273.326 240.146 273.326 240.146C273.326 240.146 282.069 241.039 285.105 249.245C288.14 257.452 293.312 273.513 296.705 275.471C300.097 277.43 295.276 291.349 291.354 292.782C287.431 294.216 273.331 297.602 272.082 295.817C270.832 294.032 259.946 292.068 260.66 286.361C261.374 280.654 265.654 275.298 262.283 271.906C258.912 268.515 256.754 259.594 251.754 257.809C246.755 256.024 237.833 255.488 232.482 259.059C227.131 262.629 220.666 262.786 220.666 262.786C220.666 262.786 209.601 256.364 207.816 251.902C206.615 248.894 200.631 243.863 196.854 240.904C195.865 240.127 195.056 239.144 194.485 238.022C193.914 236.901 193.595 235.669 193.549 234.412C193.392 230.009 193.251 223.517 193.716 222.467C194.431 220.845 204.245 211.226 204.245 211.226L225.665 216.062Z" fill="black"/>
<path d="M226.379 215.722C226.379 215.722 246.458 220.049 248.351 223.03C248.391 223.101 248.445 223.163 248.508 223.214C249.049 223.571 249.937 232.135 255.645 231.063C261.353 229.992 274.04 239.805 274.04 239.805C274.04 239.805 282.783 240.698 285.819 248.905C288.854 257.111 294.026 273.172 297.419 275.131C300.811 277.089 295.99 291.008 292.068 292.442C288.145 293.875 274.046 297.262 272.796 295.476C271.546 293.691 260.66 291.728 261.374 286.02C262.088 280.313 266.368 274.958 262.997 271.566C259.627 268.174 257.468 259.253 252.469 257.468C247.469 255.683 238.548 255.147 233.197 258.718C227.846 262.288 220.796 262.91 220.796 262.91C220.796 262.91 210.359 256.04 208.574 251.582C207.372 248.575 201.388 243.544 197.612 240.584C196.622 239.808 195.814 238.824 195.243 237.703C194.672 236.582 194.352 235.35 194.306 234.093C194.149 229.689 194.009 223.198 194.474 222.148C195.188 220.525 205.003 210.907 205.003 210.907L226.379 215.722Z" fill="#6BC6E5"/>
<path d="M180.158 254.422C179.979 254.601 176.944 259.064 180.515 261.558C181.503 262.282 182.644 262.769 183.851 262.982C185.057 263.195 186.296 263.128 187.473 262.786L180.158 254.422Z" fill="#FFD5D8"/>
<path opacity="0.1" d="M197.271 215.527C197.271 215.527 202.092 205.892 212.42 208.392C222.749 210.891 237.758 219.99 241.328 229.089C244.899 238.188 227.802 249.262 227.802 249.262L207.459 258.718C207.459 258.718 201.215 261.217 199.43 260.341C197.644 259.464 189.08 267.114 189.08 267.114C189.08 267.114 179.444 257.836 179.444 254.623C179.444 251.409 194.436 246.557 194.436 246.557C194.436 246.557 212.291 243.165 212.101 239.778C212.101 239.778 215.136 236.208 213.529 235.137C211.923 234.066 194.701 228.981 194.701 228.981C194.701 228.981 194.079 217.669 197.271 215.527Z" fill="black"/>
<path d="M196.73 214.991C196.73 214.991 201.551 205.357 211.879 207.856C222.208 210.355 237.217 219.454 240.787 228.553C244.358 237.652 227.267 248.721 227.267 248.721L206.923 258.177C206.923 258.177 200.68 260.676 198.894 259.8C197.109 258.923 188.544 266.573 188.544 266.573C188.544 266.573 178.908 257.295 178.908 254.082C178.908 250.868 193.9 246.016 193.9 246.016C193.9 246.016 211.755 242.624 211.566 239.237C211.566 239.237 214.601 235.667 212.994 234.596C211.387 233.525 194.165 228.44 194.165 228.44C194.165 228.44 193.543 217.134 196.73 214.991Z" fill="#6BC6E5"/>
<path opacity="0.1" d="M173.914 234.975C176.808 233.212 180.067 232.133 183.442 231.821C184.421 229.933 181.851 227.877 181.851 225.605C181.851 223.701 181.126 222.976 180.423 221.321C177.869 220.396 179.622 218.021 179.622 218.021L173.914 234.975Z" fill="black"/>
<path d="M169.629 241.044C177.219 241.044 183.372 234.892 183.372 227.304C183.372 219.715 177.219 213.563 169.629 213.563C162.039 213.563 155.886 219.715 155.886 227.304C155.886 234.892 162.039 241.044 169.629 241.044Z" fill="#FFD5D8"/>
<path d="M159.327 232.941C162.395 230.571 166.388 229.776 170.251 229.43C172.664 229.213 175.121 229.138 177.436 228.402C178.768 227.937 180.06 227.366 181.299 226.692C182.955 225.849 184.665 224.961 185.795 223.485C187.559 221.18 187.505 217.988 188.609 215.3C190.605 210.431 196.113 207.91 201.34 207.255C204.375 206.871 207.692 206.871 210.094 204.973C211.326 203.989 212.168 202.599 212.469 201.051C212.565 200.716 212.534 200.358 212.382 200.044C212.234 199.841 212.034 199.681 211.804 199.579C208.665 197.908 204.889 198.34 201.334 198.259C195.551 198.135 189.913 196.544 184.318 195.078C181.949 194.456 179.389 193.861 177.106 194.738C174.942 195.565 173.476 197.534 171.739 199.065C164.641 205.33 152.857 204.421 146.543 211.475C145.082 213.098 143.983 215.332 144.519 217.458C144.741 218.329 145.217 219.124 145.374 220.012C145.682 221.759 144.687 223.436 143.843 224.994C142.999 226.552 142.263 228.456 143.047 230.041C144.254 232.465 147.917 232.286 149.827 234.207C150.714 235.099 151.136 236.37 152.061 237.236C153.544 238.599 155.811 238.491 157.813 238.318C158.895 238.215 160.664 237.858 160.355 236.408C160.096 235.11 158.381 234.553 159.327 232.941Z" fill="#284352"/>
<path d="M154.528 241.147C154.528 241.147 163.899 234.115 169.786 236.419C175.672 238.724 177.279 239.989 181.029 238.583C184.778 237.176 186.38 241.439 186.38 241.439L163.028 248.18L154.528 241.147Z" fill="#F8F9FA"/>
<path opacity="0.05" d="M141.884 253.443C141.884 253.443 146.169 242.381 151.342 240.238Z" fill="black"/>
<path opacity="0.05" d="M136.349 249.873C136.349 249.873 140.634 238.81 145.807 236.668Z" fill="black"/>
<path opacity="0.05" d="M236.638 252.551C236.638 252.551 251.787 245.237 261.975 245.951C272.163 246.665 273.932 240.244 273.932 240.244" fill="black"/>
<path d="M171.101 435.16C169.84 433.986 168.655 432.601 168.287 430.918C167.919 429.236 168.639 427.213 170.251 426.591C172.053 425.898 173.984 427.132 175.445 428.414C176.906 429.696 178.583 431.119 180.493 430.848C179.51 429.956 178.774 428.825 178.357 427.564C177.941 426.303 177.859 424.956 178.118 423.653C178.202 423.116 178.43 422.611 178.778 422.193C179.779 421.111 181.597 421.581 182.793 422.425C186.58 425.13 187.662 430.286 187.689 434.949C188.073 433.266 187.749 431.514 187.759 429.788C187.77 428.062 188.241 426.153 189.696 425.222C190.603 424.735 191.622 424.496 192.65 424.53C194.366 424.465 196.276 424.638 197.444 425.893C198.9 427.451 198.526 430.064 197.255 431.779C195.983 433.494 194.063 434.57 192.293 435.755C190.873 436.601 189.662 437.757 188.75 439.136C188.641 439.329 188.553 439.531 188.484 439.742H177.745C175.333 438.521 173.098 436.98 171.101 435.16V435.16Z" fill="#A7E0FE"/>
<path d="M419.187 386.932C418.35 386.25 417.74 385.329 417.439 384.293C417.212 383.243 417.661 381.988 418.662 381.588C419.782 381.16 420.983 381.934 421.908 382.724C422.833 383.514 423.856 384.406 425.046 384.238C424.434 383.684 423.977 382.98 423.718 382.196C423.459 381.412 423.408 380.574 423.569 379.765C423.621 379.43 423.763 379.116 423.98 378.856C424.603 378.19 425.733 378.477 426.48 379.002C428.85 380.668 429.51 383.871 429.526 386.786C429.764 385.742 429.564 384.65 429.569 383.578C429.575 382.507 429.867 381.317 430.776 380.744C431.34 380.44 431.975 380.29 432.616 380.311C433.698 380.273 434.866 380.381 435.597 381.16C436.5 382.129 436.268 383.752 435.478 384.817C434.688 385.883 433.492 386.554 432.394 387.289C431.511 387.816 430.758 388.536 430.192 389.394C430.126 389.513 430.071 389.638 430.029 389.767H423.315C421.818 389.012 420.429 388.059 419.187 386.932Z" fill="#A7E0FE"/>
</g>
<defs>
<linearGradient id="paint0_linear_5_2" x1="226.78" y1="332.625" x2="226.78" y2="192.822" gradientUnits="userSpaceOnUse">
<stop stop-color="#808080" stop-opacity="0.25"/>
<stop offset="0.54" stop-color="#808080" stop-opacity="0.12"/>
<stop offset="1" stop-color="#808080" stop-opacity="0.1"/>
</linearGradient>
<clipPath id="clip0_5_2">
<rect width="572" height="452" fill="white"/>
</clipPath>
</defs>
</svg>
